<svg xmlns="http://www.w3.org/2000/svg"  viewBox="0 0 50 50" width="50px" height="50px"><path d="M 17 9 C 7.6269372 9 0 16.626937 0 26 C 0 35.340099 7.5745556 42.940756 16.902344 42.994141 A 1.0001 1.0001 0 0 0 17 43 C 23.77695 43 29.578754 38.986204 32.294922 33.226562 C 38.719321 32.539988 43.391287 28.472908 44.822266 22.222656 A 1.0001 1.0001 0 0 0 43.611328 21.029297 C 43.611328 21.029297 42.014189 21.350595 39.996094 21.449219 C 45.41969 19.156268 48.851589 15.167342 49.974609 10.220703 A 1.0001 1.0001 0 0 0 49 9 L 40.964844 9 C 35.083593 9 31.224094 9.2456105 28.210938 11.71875 C 27.909552 11.966121 27.622105 12.238449 27.341797 12.525391 C 24.474693 10.321268 20.889211 9 17 9 z M 17 11 C 20.413709 11 23.546346 12.145642 26.066406 14.064453 C 24.583561 16.147581 23.331138 19.040358 21.96875 23.025391 C 20.952528 21.336759 19.106802 20.199219 17 20.199219 C 13.805847 20.199219 11.199219 22.805847 11.199219 26 C 11.199219 29.194153 13.805847 31.800781 17 31.800781 C 17.821746 31.800781 18.602905 31.625116 19.3125 31.314453 L 16.279297 40.962891 C 8.3260297 40.585007 2 34.04766 2 26 C 2 17.709063 8.7090628 11 17 11 z M 40.964844 11 L 47.550781 11 C 45.959334 15.904626 41.938809 19.633738 34.792969 21.017578 A 1.0001 1.0001 0 0 0 34.707031 22.960938 C 37.842382 23.863363 40.593382 23.541414 42.310547 23.248047 C 40.673141 28.018089 37.031465 30.95968 31.599609 31.355469 A 1.0001 1.0001 0 0 0 30.753906 31.957031 C 28.645186 36.849813 23.961248 40.245896 18.429688 40.785156 L 22.753906 27.044922 C 25.208166 19.244416 27.068173 15.242032 29.478516 13.263672 C 31.88886 11.285311 35.144095 11 40.964844 11 z M 17 22.199219 C 19.117847 22.199219 20.800781 23.882153 20.800781 26 C 20.800781 28.117847 19.117847 29.800781 17 29.800781 C 14.882153 29.800781 13.199219 28.117847 13.199219 26 C 13.199219 23.882153 14.882153 22.199219 17 22.199219 z"/></svg>